<svg width="281" height="354" viewBox="0 0 281 354" fill="none" xmlns="http://www.w3.org/2000/svg">
<ellipse cx="7.41453" cy="7.7889" rx="7.41453" ry="7.7889" fill="#F6EAFF"/>
<ellipse cx="7.41453" cy="56.0801" rx="7.41453" ry="7.7889" fill="#F6EAFF"/>
<ellipse cx="7.41453" cy="104.371" rx="7.41453" ry="7.7889" fill="#F6EAFF"/>
<ellipse cx="7.41453" cy="152.663" rx="7.41453" ry="7.7889" fill="#F6EAFF"/>
<ellipse cx="7.41453" cy="200.954" rx="7.41453" ry="7.7889" fill="#F6EAFF"/>
<ellipse cx="7.41453" cy="249.245" rx="7.41453" ry="7.7889" fill="#F6EAFF"/>
<ellipse cx="7.41453" cy="297.536" rx="7.41453" ry="7.7889" fill="#F6EAFF"/>
<ellipse cx="7.41453" cy="345.827" rx="7.41453" ry="7.7889" fill="#F6EAFF"/>
<ellipse cx="48.936" cy="7.7889" rx="7.41453" ry="7.7889" fill="#F6EAFF"/>
<ellipse cx="48.936" cy="56.0801" rx="7.41453" ry="7.7889" fill="#F6EAFF"/>
<ellipse cx="48.936" cy="104.371" rx="7.41453" ry="7.7889" fill="#F6EAFF"/>
<ellipse cx="48.936" cy="152.663" rx="7.41453" ry="7.7889" fill="#F6EAFF"/>
<ellipse cx="48.936" cy="200.954" rx="7.41453" ry="7.7889" fill="#F6EAFF"/>
<ellipse cx="48.936" cy="249.245" rx="7.41453" ry="7.7889" fill="#F6EAFF"/>
<ellipse cx="48.936" cy="297.536" rx="7.41453" ry="7.7889" fill="#F6EAFF"/>
<ellipse cx="48.936" cy="345.827" rx="7.41453" ry="7.7889" fill="#F6EAFF"/>
<ellipse cx="90.4573" cy="7.7889" rx="7.41453" ry="7.7889" fill="#F6EAFF"/>
<ellipse cx="90.4573" cy="56.0801" rx="7.41453" ry="7.7889" fill="#F6EAFF"/>
<ellipse cx="90.4573" cy="104.371" rx="7.41453" ry="7.7889" fill="#F6EAFF"/>
<ellipse cx="90.4573" cy="152.663" rx="7.41453" ry="7.7889" fill="#F6EAFF"/>
<ellipse cx="90.4573" cy="200.954" rx="7.41453" ry="7.7889" fill="#F6EAFF"/>
<ellipse cx="90.4573" cy="249.245" rx="7.41453" ry="7.7889" fill="#F6EAFF"/>
<ellipse cx="90.4573" cy="297.536" rx="7.41453" ry="7.7889" fill="#F6EAFF"/>
<ellipse cx="90.4573" cy="345.827" rx="7.41453" ry="7.7889" fill="#F6EAFF"/>
<ellipse cx="131.979" cy="7.7889" rx="7.41453" ry="7.7889" fill="#F6EAFF"/>
<ellipse cx="131.979" cy="56.0801" rx="7.41453" ry="7.7889" fill="#F6EAFF"/>
<ellipse cx="131.979" cy="104.371" rx="7.41453" ry="7.7889" fill="#F6EAFF"/>
<ellipse cx="131.979" cy="152.663" rx="7.41453" ry="7.7889" fill="#F6EAFF"/>
<ellipse cx="131.979" cy="200.954" rx="7.41453" ry="7.7889" fill="#F6EAFF"/>
<ellipse cx="131.979" cy="249.245" rx="7.41453" ry="7.7889" fill="#F6EAFF"/>
<ellipse cx="131.979" cy="297.536" rx="7.41453" ry="7.7889" fill="#F6EAFF"/>
<ellipse cx="131.979" cy="345.827" rx="7.41453" ry="7.7889" fill="#F6EAFF"/>
<ellipse cx="173.5" cy="7.7889" rx="7.41453" ry="7.7889" fill="#F6EAFF"/>
<ellipse cx="173.5" cy="56.0801" rx="7.41453" ry="7.7889" fill="#F6EAFF"/>
<ellipse cx="173.5" cy="104.371" rx="7.41453" ry="7.7889" fill="#F6EAFF"/>
<ellipse cx="173.5" cy="152.663" rx="7.41453" ry="7.7889" fill="#F6EAFF"/>
<ellipse cx="173.5" cy="200.954" rx="7.41453" ry="7.7889" fill="#F6EAFF"/>
<ellipse cx="173.5" cy="249.245" rx="7.41453" ry="7.7889" fill="#F6EAFF"/>
<ellipse cx="173.5" cy="297.536" rx="7.41453" ry="7.7889" fill="#F6EAFF"/>
<ellipse cx="173.5" cy="345.827" rx="7.41453" ry="7.7889" fill="#F6EAFF"/>
<ellipse cx="215.021" cy="7.7889" rx="7.41453" ry="7.7889" fill="#F6EAFF"/>
<ellipse cx="215.021" cy="56.0801" rx="7.41453" ry="7.7889" fill="#F6EAFF"/>
<ellipse cx="215.021" cy="104.371" rx="7.41453" ry="7.7889" fill="#F6EAFF"/>
<ellipse cx="215.021" cy="152.663" rx="7.41453" ry="7.7889" fill="#F6EAFF"/>
<ellipse cx="215.021" cy="200.954" rx="7.41453" ry="7.7889" fill="#F6EAFF"/>
<ellipse cx="215.021" cy="249.245" rx="7.41453" ry="7.7889" fill="#F6EAFF"/>
<ellipse cx="215.021" cy="297.536" rx="7.41453" ry="7.7889" fill="#F6EAFF"/>
<ellipse cx="215.021" cy="345.827" rx="7.41453" ry="7.7889" fill="#F6EAFF"/>
<ellipse cx="256.543" cy="7.7889" rx="7.41453" ry="7.7889" fill="#F6EAFF"/>
<ellipse cx="256.543" cy="56.0801" rx="7.41453" ry="7.7889" fill="#F6EAFF"/>
<ellipse cx="256.543" cy="104.371" rx="7.41453" ry="7.7889" fill="#F6EAFF"/>
<ellipse cx="256.543" cy="152.663" rx="7.41453" ry="7.7889" fill="#F6EAFF"/>
<ellipse cx="256.543" cy="200.954" rx="7.41453" ry="7.7889" fill="#F6EAFF"/>
<ellipse cx="256.543" cy="249.245" rx="7.41453" ry="7.7889" fill="#F6EAFF"/>
<ellipse cx="256.543" cy="297.536" rx="7.41453" ry="7.7889" fill="#F6EAFF"/>
<ellipse cx="256.543" cy="345.827" rx="7.41453" ry="7.7889" fill="#F6EAFF"/>
</svg>
