<svg width="158" height="126" viewBox="0 0 158 126" fill="none" xmlns="http://www.w3.org/2000/svg">
<path d="M128.341 64.0234C146.06 64.0234 158 76.4123 158 94.7687C158 111.287 144.277 125.049 125.689 125.049C105.33 125.049 90.2859 108.53 90.2859 83.2988C90.2859 25.9492 131.885 3.00931 158 0.252441V25.484C140.293 28.6947 120.385 46.5859 119.493 66.3265C120.385 65.8727 123.917 64.0234 128.341 64.0234Z" fill="#5F49BF"/>
<path d="M38.0667 64.0234C55.7627 64.0234 67.7143 76.4123 67.7143 94.7687C67.7143 111.287 53.9909 125.049 35.4033 125.049C15.0439 125.049 0 108.53 0 83.2988C0 25.9492 41.5991 3.00931 67.7143 0.252441V25.484C50.007 28.6947 30.099 46.5859 29.2074 66.3265C30.099 65.8727 33.6314 64.0234 38.0667 64.0234Z" fill="#5F49BF"/>
</svg>
